<svg width="34" height="49" viewBox="0 0 34 49" fill="none" xmlns="http://www.w3.org/2000/svg">
<path d="M12 17.0267L12.0258 16.998" stroke="white" stroke-width="3" stroke-linecap="round" stroke-linejoin="round"/>
<path d="M22 17.0267L22.0258 16.998" stroke="white" stroke-width="3" stroke-linecap="round" stroke-linejoin="round"/>
<path d="M12 27.0267L12.0258 26.998" stroke="white" stroke-width="3" stroke-linecap="round" stroke-linejoin="round"/>
<path d="M22 27.0267L22.0258 26.998" stroke="white" stroke-width="3" stroke-linecap="round" stroke-linejoin="round"/>
<path d="M12 37.0248L12.0258 36.9961" stroke="white" stroke-width="3" stroke-linecap="round" stroke-linejoin="round"/>
<path d="M22 37.0248L22.0258 36.9961" stroke="white" stroke-width="3" stroke-linecap="round" stroke-linejoin="round"/>
<path d="M2 45.5V8.5C2 7.67157 2.67157 7 3.5 7H17V3.5C17 2.67157 17.6715 2 18.5 2H30.5C31.3285 2 32 2.67157 32 3.5V45.5C32 46.3285 31.3285 47 30.5 47H3.5C2.67157 47 2 46.3285 2 45.5Z" stroke="white" stroke-width="3" stroke-linecap="round" stroke-linejoin="round"/>
</svg>
