<svg width="43" height="49" viewBox="0 0 43 49" fill="none" xmlns="http://www.w3.org/2000/svg">
<path d="M11.4865 8.32434H6.21622C3.88766 8.32434 2 10.212 2 12.5406V42.0541C2 44.3827 3.88766 46.2703 6.21622 46.2703H18.8649" stroke="white" stroke-width="3" stroke-linecap="round"/>
<path d="M26.2432 8.32434H31.5134C33.8421 8.32434 35.7297 10.212 35.7297 12.5406V31.5135" stroke="white" stroke-width="3" stroke-linecap="round"/>
<path d="M10.4326 13.3838V9.37838C10.4326 8.79625 10.9045 8.32432 11.4867 8.32432C12.0688 8.32432 12.5496 7.85219 12.6493 7.27866C12.9617 5.48198 14.1724 2 18.865 2C23.5577 2 24.7684 5.48198 25.0808 7.27866C25.1805 7.85219 25.6614 8.32432 26.2434 8.32432C26.8255 8.32432 27.2975 8.79625 27.2975 9.37838V13.3838C27.2975 14.0823 26.7312 14.6486 26.0326 14.6486H11.6975C10.9989 14.6486 10.4326 14.0823 10.4326 13.3838Z" stroke="white" stroke-width="3" stroke-linecap="round"/>
<path d="M26.2432 43.1095L30.4594 47.3257L40.9999 36.7852" stroke="white" stroke-width="3" stroke-linecap="round" stroke-linejoin="round"/>
</svg>
