<svg width="49" height="49" viewBox="0 0 49 49" fill="none" xmlns="http://www.w3.org/2000/svg">
<path d="M24.499 31.2499C28.227 31.2499 31.249 28.2279 31.249 24.4999C31.249 20.7719 28.227 17.7499 24.499 17.7499C20.771 17.7499 17.749 20.7719 17.749 24.4999C17.749 28.2279 20.771 31.2499 24.499 31.2499Z" stroke="#1C1F35" stroke-width="3" stroke-linecap="round" stroke-linejoin="round"/>
<path d="M41.6504 20.8897L39.1806 14.9258L42.5 11L38 6.5L34.0956 9.83664L28.0051 7.33192L26.6044 2H22.2072L20.7855 7.40254L14.8349 9.91091L11 6.5L6.5 11L9.77008 15.0249L7.33812 21.0042L2 22.25V26.75L7.4025 28.2249L9.91044 34.1743L6.5 38L11 42.5L15.0301 39.2157L20.8933 41.6277L22.25 47H26.75L28.1101 41.6297L34.074 39.1599C35.068 39.8704 38 42.5 38 42.5L42.5 38L39.1608 34.0611L41.6313 28.0955L46.9998 26.6987L47 22.25L41.6504 20.8897Z" stroke="#1C1F35" stroke-width="3" stroke-linecap="round" stroke-linejoin="round"/>
</svg>
