<svg width="58" height="46" viewBox="0 0 58 46" fill="none" xmlns="http://www.w3.org/2000/svg">
<path d="M2 43.9991V41.5285C2 31.9772 9.74286 24.2344 19.2941 24.2344C28.8454 24.2344 36.5883 31.9772 36.5883 41.5285V43.9991" stroke="RGB(12, 25, 96)" stroke-width="3" stroke-linecap="round"/>
<path d="M31.6465 29.1772C31.6465 22.3549 37.1771 16.8242 43.9994 16.8242C50.8217 16.8242 56.3524 22.3549 56.3524 29.1772V30.4125" stroke="RGB(12, 25, 96)" stroke-width="3" stroke-linecap="round"/>
<path d="M19.2942 24.2353C24.752 24.2353 29.1766 19.8107 29.1766 14.3529C29.1766 8.89506 24.752 4.47058 19.2942 4.47058C13.8363 4.47058 9.41187 8.89506 9.41187 14.3529C9.41187 19.8107 13.8363 24.2353 19.2942 24.2353Z" stroke="RGB(12, 25, 96)" stroke-width="3" stroke-linecap="round" stroke-linejoin="round"/>
<path d="M43.9997 16.8235C48.0932 16.8235 51.4114 13.5052 51.4114 9.41177C51.4114 5.31837 48.0932 2 43.9997 2C39.9061 2 36.5879 5.31837 36.5879 9.41177C36.5879 13.5052 39.9061 16.8235 43.9997 16.8235Z" stroke="RGB(12, 25, 96)" stroke-width="3" stroke-linecap="round" stroke-linejoin="round"/>
</svg>
