<svg width="22" height="22" viewBox="0 0 22 22" fill="none" xmlns="http://www.w3.org/2000/svg">
<path d="M21 11C21 5.47715 16.5228 1 11 1C5.47715 1 1 5.47715 1 11C1 16.5228 5.47715 21 11 21" stroke="black" stroke-linecap="round" stroke-linejoin="round"/>
<path d="M12 1.04883C12 1.04883 15 4.99945 15 10.9994" stroke="black" stroke-linecap="round" stroke-linejoin="round"/>
<path d="M10 20.9501C10 20.9501 7 16.9994 7 10.9994C7 4.99945 10 1.04883 10 1.04883" stroke="black" stroke-linecap="round" stroke-linejoin="round"/>
<path d="M1.62891 14.5H10.9993" stroke="black" stroke-linecap="round" stroke-linejoin="round"/>
<path d="M1.62891 7.5H20.3697" stroke="black" stroke-linecap="round" stroke-linejoin="round"/>
<path fill-rule="evenodd" clip-rule="evenodd" d="M20.8792 16.9179C21.373 17.2216 21.3426 17.9609 20.834 18.0186L18.2674 18.3095L17.1162 20.6218C16.8881 21.08 16.183 20.8557 16.0664 20.2878L14.8111 14.1718C14.7126 13.6918 15.144 13.3897 15.5613 13.6465L20.8792 16.9179Z" stroke="black"/>
</svg>
