<svg width="44" height="56" viewBox="0 0 44 56" fill="none" xmlns="http://www.w3.org/2000/svg">
<path d="M43 21.86C43 40.694 22.0732 55.3428 22.0732 55.3428C22.0732 55.3428 1.14648 40.694 1.14648 21.86C1.14648 16.3098 3.35126 10.987 7.27579 7.06251C11.2003 3.13798 16.5231 0.933205 22.0732 0.933205C27.6234 0.933205 32.9462 3.13798 36.8707 7.06251C40.7952 10.987 43 16.3098 43 21.86V21.86Z" fill="#F6B426" stroke="#F6B426" stroke-linecap="round" stroke-linejoin="round"/>
<path d="M22.0768 30.2307C26.6998 30.2307 30.4475 26.483 30.4475 21.8599C30.4475 17.2369 26.6998 13.4892 22.0768 13.4892C17.4537 13.4892 13.7061 17.2369 13.7061 21.8599C13.7061 26.483 17.4537 30.2307 22.0768 30.2307Z" fill="white" stroke="#F6B426" stroke-linecap="round" stroke-linejoin="round"/>
</svg>
